# xmcd
#
# Track frame offsets:
#	150
#	11774
#	22956
#	35817
#	45508
#	58616
#	71095
#	81859
#	92224
#	102581
#	114862
#	129596
#	141890
#	152613
#	163597
#	175776
#	186901
#	199393
#	212461
#	225586
#
# Disc length: 3181 seconds
#
# Revision: 1
# Processed by: cddbd v1.5.2PL0 Copyright (c) Steve Scherf et al.
# Submitted via: audiograbber 1.83.01
#
DISCID=120c6b14
DTITLE=Wanda Jackson - The Famous Wanda Jackson CD5
DYEAR=2012
DGENRE=Country
TTITLE0=Heartbreak Hotel
TTITLE1=Hello Darlin'
TTITLE2=Here We Are Again
TTITLE3=He's Got The Whole Wordl In His Hand
TTITLE4=He's My Everything
TTITLE5=He's The Man
TTITLE6=Hold Me Tight
TTITLE7=Honey Bop
TTITLE8=Honey Don't
TTITLE9=Hot Dog ! That Made Him Mad
TTITLE10=How Great Thou Are
TTITLE11=How Important Can It Be
TTITLE12=I Betcha My Heart I Love You
TTITLE13=I Can´t Make My Dreams Understand
TTITLE14=I Cried Again
TTITLE15=I Don´t Wanta Go
TTITLE16=I Don't Believe I'll Fall In Love Today
TTITLE17=I Dont Care If The Sun Dont Shine
TTITLE18=I Don't Know How To Tell Him
TTITLE19=I Forgot To Remember To Forget Him
EXTD=
EXTT0=
EXTT1=
EXTT2=
EXTT3=
EXTT4=
EXTT5=
EXTT6=
EXTT7=
EXTT8=
EXTT9=
EXTT10=
EXTT11=
EXTT12=
EXTT13=
EXTT14=
EXTT15=
EXTT16=
EXTT17=
EXTT18=
EXTT19=
PLAYORDER=
